# xmcd
#
# Track frame offsets: 
#        150
#        12634
#        21572
#        42809
#        50455
#        71074
#        95934
#        121928
#        147808
#        154565
#        178286
#        213812
#        242583
#
# Disc length: 3340 seconds
#
# Revision: 7
# Processed by: cddbd v1.5.2PL0 Copyright (c) Steve Scherf et al.
# Submitted via: ExactAudioCopy v1.1
#
DISCID=b90d0a0d
DTITLE=Nina Hagen - Om Namah Shivay! 1
DYEAR=2002
DGENRE=Ethnic
TTITLE0=SHANK Invocation, Ganesha Mantra and Om with Digeridoo
TTITLE1=From Durga Saptashati
TTITLE2=Shri Siddha Siddeshvari Mata Haidhakandeshvariji Aarati
TTITLE3=Mrityunjaya Mantra!
TTITLE4=Jai Mata Kali Jai Mata Durge!
TTITLE5=Hare Krsna Hare Rama
TTITLE6=He Shiva Shankara!
TTITLE7=Om Namah Shivay!
TTITLE8=Gayatri Mantra!
TTITLE9=Oh Mata Haidhakandeshvari!
TTITLE10=SANKIRTANA!
TTITLE11=Hara Hara Amarnatha Gange
TTITLE12=Shanti  Mantra
EXTD=
EXTT0=
EXTT1=
EXTT2=
EXTT3=
EXTT4=
EXTT5=
EXTT6=
EXTT7=
EXTT8=
EXTT9=
EXTT10=
EXTT11=
EXTT12=
PLAYORDER=
